# xmcd
#
# Track frame offsets:
#   150
#   16025
#   29880
#   44213
#   58642
#   75624
#   89728
#   104033
#   115860
#   131762
#   143756
#   157462
#   172081
#   191666
#   205949
#   220251
#   236835
#
# Disc length: 3383 seconds
#
# Revision: 0
# Processed by: cddbd v1.5.2PL0 Copyright (c) Steve Scherf et al.
# Submitted via: uFREEDB ActiveX Control 1.5
#
DISCID=0e0d3511
DTITLE=MICHEL TELÓ - MICHEL TELÓ
DYEAR=1900
DGENRE=Country
TTITLE0=MICHEL TELÓ1
TTITLE1=MICHEL TELÓ2
TTITLE2=MICHEL TELÓ3
TTITLE3=MICHEL TELÓ4
TTITLE4=MICHEL TELÓ5
TTITLE5=MICHEL TELÓ6
TTITLE6=MICHEL TELÓ7
TTITLE7=MICHEL TELÓ8
TTITLE8=MICHEL TELÓ9
TTITLE9=MICHEL TELÓ10
TTITLE10=MICHEL TELÓ11
TTITLE11=MICHEL TELÓ12
TTITLE12=MICHEL TELÓ13
TTITLE13=MICHEL TELÓ14
TTITLE14=MICHEL TELÓ15
TTITLE15=MICHEL TELÓ16
TTITLE16=MICHEL TELÓ17
EXTD=
EXTT0=
EXTT1=
EXTT2=
EXTT3=
EXTT4=
EXTT5=
EXTT6=
EXTT7=
EXTT8=
EXTT9=
EXTT10=
EXTT11=
EXTT12=
EXTT13=
EXTT14=
EXTT15=
EXTT16=
PLAYORDER=
